<svg id="Layer_1" data-name="Layer 1" xmlns="http://www.w3.org/2000/svg" xmlns:xlink="http://www.w3.org/1999/xlink" viewBox="0 0 784 1280">
  <defs>
    <clipPath id="clip-path">
      <rect width="784" height="1280" style="fill: none"/>
    </clipPath>
    <mask id="mask" x="753.50638" y="-15.5004" width="117.86043" height="121.7311" maskUnits="userSpaceOnUse">
      <g id="mask0_1717_15940" data-name="mask0 1717 15940">
        <ellipse cx="826.81201" cy="35.5451" rx="44.5548" ry="51.0455" style="fill: #fff"/>
      </g>
    </mask>
    <mask id="mask-2" x="312.7417" y="-23.7197" width="212.6875" height="219.78288" maskUnits="userSpaceOnUse">
      <g id="mask1_1717_15940" data-name="mask1 1717 15940">
        <ellipse cx="393.763" cy="69.1047" rx="81.0213" ry="92.82441" style="fill: #fff"/>
      </g>
    </mask>
    <mask id="mask-3" x="607.57013" y="55.2457" width="175.13127" height="180.96556" maskUnits="userSpaceOnUse">
      <g id="mask2_1717_15940" data-name="mask2 1717 15940">
        <ellipse cx="674.15002" cy="131.52499" rx="66.5799" ry="76.2793" style="fill: #fff"/>
      </g>
    </mask>
    <mask id="mask-4" x="381.53909" y="440.12192" width="140.60899" height="145.27729" maskUnits="userSpaceOnUse">
      <g id="mask3_1717_15940" data-name="mask3 1717 15940">
        <ellipse cx="434.84299" cy="501.19102" rx="53.30389" ry="61.06911" style="fill: #fff"/>
      </g>
    </mask>
    <mask id="mask-5" x="481.2973" y="547.1286" width="212.68702" height="219.78359" maskUnits="userSpaceOnUse">
      <g id="mask4_1717_15940" data-name="mask4 1717 15940">
        <ellipse cx="612.96301" cy="639.953" rx="81.0213" ry="92.8244" style="fill: #fff"/>
      </g>
    </mask>
    <mask id="mask-6" x="210.5936" y="606.98712" width="174.40665" height="180.21133" maskUnits="userSpaceOnUse">
      <g id="mask5_1717_15940" data-name="mask5 1717 15940">
        <ellipse cx="276.89301" cy="682.94501" rx="66.29941" ry="75.95789" style="fill: #fff"/>
      </g>
    </mask>
    <mask id="mask-7" x="387.54712" y="829.67133" width="205.01427" height="211.83866" maskUnits="userSpaceOnUse">
      <g id="mask6_1717_15940" data-name="mask6 1717 15940">
        <ellipse cx="465.61401" cy="919.11102" rx="78.06689" ry="89.4397" style="fill: #fff"/>
      </g>
    </mask>
    <mask id="mask-8" x="516.57953" y="1048.51488" width="166.18576" height="171.71288" maskUnits="userSpaceOnUse">
      <g id="mask7_1717_15940" data-name="mask7 1717 15940">
        <ellipse cx="619.62799" cy="1120.84998" rx="63.1373" ry="72.3351" style="fill: #fff"/>
      </g>
    </mask>
    <mask id="mask-9" x="99.9063" y="961.84814" width="215.22319" height="222.40117" maskUnits="userSpaceOnUse">
      <g id="mask8_1717_15940" data-name="mask8 1717 15940">
        <ellipse cx="181.903" cy="1055.79004" rx="81.99669" ry="93.94189" style="fill: #fff"/>
      </g>
    </mask>
  </defs>
  <g style="clip-path: url(#clip-path)">
    <g>
      <path d="M828.125,61.6215C771.148-1.91128,707.798,102.026,808.901,104.226c9.28.202,17.393-6.1229,20.372-14.913l2.463-7.2639C834.11,75.0451,833.063,67.1272,828.125,61.6215Z" style="fill: #fe4d8f;stroke: #000;stroke-width: 4px"/>
      <path d="M805.948,87.3082c-84.153,14.1788-30.193,123.2868,25.724,39.0248,5.132-7.733,4.125-17.971-1.71-25.189l-4.821-5.9645C820.491,89.4282,813.24,86.0795,805.948,87.3082Z" style="fill: #fe4d8f;stroke: #000;stroke-width: 4px"/>
      <g style="mask: url(#mask)">
        <path d="M828.125,61.622c-56.977-63.53279-120.327,40.404-19.224,42.604,9.28.202,17.393-6.1224,20.372-14.9125l2.463-7.2639C834.11,75.0456,833.063,67.1277,828.125,61.622Z" style="fill: #fe4d8f;stroke: #000;stroke-width: 4px"/>
      </g>
      <path d="M241.716,409.341l35.243-26.75-17.376-22.893-35.244,26.75a29.74343,29.74343,0,0,0,4.722,50.315l36.772,18.316a.87634.87634,0,0,1,.423.337l.001.001a1.25163,1.25163,0,0,1,0,1.119h-.001a.8752.8752,0,0,1-.423.338l-31.305,15.592c-21.977,10.946-21.977,42.301,0,53.247l31.305,15.593a.876.876,0,0,1,.423.337l.001.001a1.25163,1.25163,0,0,1,0,1.119h-.001a.87517.87517,0,0,1-.423.338l-31.305,15.592c-21.977,10.947-21.977,42.301,0,53.247l31.305,15.593a.876.876,0,0,1,.423.337l.001.001a1.25163,1.25163,0,0,1,0,1.119h-.001a.869.869,0,0,1-.423.338L234.528,644.92c-21.977,10.947-21.977,42.301,0,53.247l31.305,15.593a.88273.88273,0,0,1,.423.337l.001.001a1.26014,1.26014,0,0,1,0,1.119h-.001a.87521.87521,0,0,1-.423.338l-31.305,15.592c-21.977,10.947-21.977,42.301,0,53.247l31.305,15.593a.87641.87641,0,0,1,.423.337l.001.001a1.2515,1.2515,0,0,1,0,1.119h-.001a.86866.86866,0,0,1-.423.338l-31.305,15.592c-21.977,10.947-21.977,42.301,0,53.247l58.932,29.354,12.813-25.727-58.931-29.353a.87568.87568,0,0,1-.424-.337,1.25386,1.25386,0,0,1,0-1.12h0a.87576.87576,0,0,1,.424-.337l31.305-15.593c21.976-10.946,21.976-42.301,0-53.247l-31.305-15.593a.882.882,0,0,1-.424-.337v-.001a1.2518,1.2518,0,0,1,0-1.119.88051.88051,0,0,1,.424-.338l31.305-15.592c21.976-10.946,21.976-42.301,0-53.247l-31.305-15.593a.87576.87576,0,0,1-.424-.337h0a1.25386,1.25386,0,0,1,0-1.12h0a.87606.87606,0,0,1,.424-.337L278.647,655.054c21.976-10.94605,21.976-42.301,0-53.247l-31.306-15.593a.8763.8763,0,0,1-.423-.337v-.001a1.25167,1.25167,0,0,1,0-1.119h0a.881.881,0,0,1,.423-.338l31.306-15.592c21.976-10.947,21.976-42.301,0-53.247l-31.305-15.593a.88182.88182,0,0,1-.424-.337v-.001a1.25174,1.25174,0,0,1,0-1.119h0a.87479.87479,0,0,1,.424-.338L278.647,482.6c21.976-10.947,21.976-42.301,0-53.247l-36.772-18.316a.90916.90916,0,0,1-.391-.312,1.17734,1.17734,0,0,1-.094-1.004A.91038.91038,0,0,1,241.716,409.341Z" style="fill: #15b59e;stroke: #000;stroke-width: 4px;fill-rule: evenodd"/>
      <path d="M120.924,271.864v-2h90.382a90.382,90.382,0,1,1-90.382,90.382Z" style="fill: #19d3b9;stroke: #000;stroke-width: 4px"/>
      <path d="M273.812,422.729,122.947,271.864h-.024v88.382a88.38129,88.38129,0,0,0,150.889,62.483Z" style="fill: #15b59e"/>
      <path d="M384.387,219.522l-40.886-31.034,20.158-26.559,40.887,31.034a34.5061,34.5061,0,0,1-5.478,58.372l-42.66,21.248a1.023,1.023,0,0,0-.491.392h0a1.45522,1.45522,0,0,0,0,1.299h0a1.02314,1.02314,0,0,0,.491.392l36.318,18.089c25.496,12.699,25.496,49.074,0,61.773l-36.318,18.09a1.01807,1.01807,0,0,0-.491.391v.001a1.45314,1.45314,0,0,0,0,1.298v.001a1.01816,1.01816,0,0,0,.491.391l36.318,18.09c25.496,12.699,25.496,49.074,0,61.773l-36.318,18.089a1.023,1.023,0,0,0-.491.392h0a1.45522,1.45522,0,0,0,0,1.299h0a1.02314,1.02314,0,0,0,.491.392l36.318,18.089c25.496,12.699,25.496,49.074,0,61.773l-36.318,18.09a1.01831,1.01831,0,0,0-.491.391h0a1.45529,1.45529,0,0,0,0,1.299h0a1.02305,1.02305,0,0,0,.491.392l36.318,18.089c25.496,12.699,25.496,49.075,0,61.774l-36.318,18.089a1.02463,1.02463,0,0,0-.491.391v.001a1.45321,1.45321,0,0,0,0,1.298v.001a1.01789,1.01789,0,0,0,.491.391l36.318,18.09c25.496,12.699,25.496,49.074,0,61.773l-68.368,34.053-14.866-29.845,68.369-34.054a1.02393,1.02393,0,0,0,.491-.391,1.45505,1.45505,0,0,0,0-1.299h0a1.02268,1.02268,0,0,0-.491-.392l-36.318-18.089c-25.496-12.699-25.496-49.075,0-61.774l36.318-18.089a1.02425,1.02425,0,0,0,.491-.391v-.001a1.45283,1.45283,0,0,0,0-1.298,1.01631,1.01631,0,0,0-.491-.392l-36.318-18.09c-25.496-12.699-25.496-49.074,0-61.773l36.318-18.089a1.02268,1.02268,0,0,0,.491-.392h0a1.45505,1.45505,0,0,0,0-1.299h0a1.01831,1.01831,0,0,0-.491-.391l-36.318-18.09c-25.496-12.699-25.496-49.074,0-61.773l36.318-18.09a1.01785,1.01785,0,0,0,.491-.391v-.001a1.45289,1.45289,0,0,0,0-1.298h0a1.01656,1.01656,0,0,0-.491-.392l-36.318-18.089c-25.496-12.699-25.496-49.075,0-61.774l36.318-18.089a1.02286,1.02286,0,0,0,.491-.392h0a1.455,1.455,0,0,0,0-1.299h0a1.01776,1.01776,0,0,0-.491-.391l-36.318-18.09c-25.496-12.699-25.496-49.074,0-61.773l42.66-21.248a1.05273,1.05273,0,0,0,.453-.363,1.26869,1.26869,0,0,0,.186-.57,1.25094,1.25094,0,0,0-.077-.594A1.04281,1.04281,0,0,0,384.387,219.522Z" style="fill: #d12767;stroke: #000;stroke-width: 4px;fill-rule: evenodd"/>
      <path d="M385.151,123.854c107.355-133.341,234.07,74.699,28.604,70.134a22.33789,22.33789,0,0,1-20.441-15.228l-11.6-34.219A21.92025,21.92025,0,0,1,385.151,123.854Z" style="fill: #fe4d8f;stroke: #000;stroke-width: 4px"/>
      <path d="M422.189,161.894c170.081,19.426,62.028,237.742-43.973,61.672a22.33936,22.33936,0,0,1,1.939-25.417L402.87,170.05A21.92082,21.92082,0,0,1,422.189,161.894Z" style="fill: #fe4d8f;stroke: #000;stroke-width: 4px"/>
      <path d="M409.392,204.22c91.816,144.481-145.893,197.697-75.606,4.574a22.34031,22.34031,0,0,1,20.986-14.471h36.131A21.9219,21.9219,0,0,1,409.392,204.22Z" style="fill: #fe4d8f;stroke: #000;stroke-width: 4px"/>
      <path d="M356.418,229.125c-79.216,151.755-244.157-27.498-41.764-63.189a22.339,22.339,0,0,1,23.025,10.938l18.065,31.291A21.92038,21.92038,0,0,1,356.418,229.125Z" style="fill: #fe4d8f;stroke: #000;stroke-width: 4px"/>
      <path d="M326.6,191.281C158.109,221.542,198.878-18.6139,350.999,119.575a22.33816,22.33816,0,0,1,5.445,24.902l-13.683,33.44A21.91986,21.91986,0,0,1,326.6,191.281Z" style="fill: #fe4d8f;stroke: #000;stroke-width: 4px"/>
      <path d="M329.308,135.416c-76.727-153.0299,165.146-181.921,75.68,3.099a22.33973,22.33973,0,0,1-22.342,12.273L346.7,147.132A21.91839,21.91839,0,0,1,329.308,135.416Z" style="fill: #fe4d8f;stroke: #000;stroke-width: 4px"/>
      <g style="mask: url(#mask-2)">
        <path d="M385.151,123.854c107.355-133.34054,234.07,74.699,28.604,70.135a22.33882,22.33882,0,0,1-20.441-15.229l-11.6-34.218A21.92265,21.92265,0,0,1,385.151,123.854Z" style="fill: #fe4d8f;stroke: #000;stroke-width: 4px"/>
      </g>
      <circle cx="369.38901" cy="173.89101" r="48.8026" style="fill: #ffd900;stroke: #000;stroke-width: 4px"/>
      <path d="M666.444,255.132l-33.599-25.503,16.566-21.825,33.599,25.503a28.355,28.355,0,0,1-4.502,47.967l-35.056,17.461a.82993.82993,0,0,0-.403.322h-.001a1.20095,1.20095,0,0,0,0,1.067l.001.001a.82539.82539,0,0,0,.403.321l29.845,14.865c20.951,10.436,20.951,40.328,0,50.763l-29.845,14.865a.8425.8425,0,0,0-.40406.322h0a1.201,1.201,0,0,0,0,1.067v.001a.8425.8425,0,0,0,.40406.322l29.845,14.865c20.951,10.435,20.951,40.327,0,50.763l-29.845,14.865a.84368.84368,0,0,0-.40406.321v.001a1.201,1.201,0,0,0,0,1.067h0a.84228.84228,0,0,0,.40406.322l29.845,14.865c20.951,10.435,20.951,40.327,0,50.763l-29.845,14.865a.83126.83126,0,0,0-.403.321l-.001.001a1.201,1.201,0,0,0,0,1.067h.001a.8301.8301,0,0,0,.403.322l29.845,14.865c20.951,10.436,20.951,40.327,0,50.763l-29.845,14.865a.83619.83619,0,0,0-.40406.322h0a1.2009,1.2009,0,0,0,0,1.067h0a.83619.83619,0,0,0,.40406.322l29.845,14.865c20.951,10.436,20.951,40.327,0,50.763l-56.183,27.984-12.216-24.526,56.183-27.984a.8357.8357,0,0,0,.404-.322,1.19224,1.19224,0,0,0,0-1.067h0a.84218.84218,0,0,0-.404-.322l-29.845-14.865c-20.95105-10.436-20.95105-40.327,0-50.763l29.845-14.865a.84212.84212,0,0,0,.404-.322h0a1.19224,1.19224,0,0,0,0-1.067.8357.8357,0,0,0-.404-.322l-29.845-14.865c-20.95105-10.436-20.95105-40.328,0-50.763l29.845-14.865a.84216.84216,0,0,0,.404-.322h0a1.19224,1.19224,0,0,0,0-1.067v-.001a.84334.84334,0,0,0-.404-.321l-29.845-14.865c-20.95105-10.436-20.95105-40.328,0-50.763l29.845-14.865a.84216.84216,0,0,0,.404-.322h0a1.19218,1.19218,0,0,0,0-1.067v-.001a.837.837,0,0,0-.404-.321l-29.845-14.866c-20.95105-10.435-20.95105-40.327,0-50.762l29.845-14.866a.83693.83693,0,0,0,.404-.321v-.001a1.19222,1.19222,0,0,0,0-1.067h0a.84216.84216,0,0,0-.404-.322l-29.845-14.865c-20.95105-10.435-20.95105-40.327,0-50.763l35.056-17.461a.85316.85316,0,0,0,.373-.298,1.02973,1.02973,0,0,0,.153-.468,1.0476,1.0476,0,0,0-.063-.488A.85693.85693,0,0,0,666.444,255.132Z" style="fill: #15b59e;stroke: #000;stroke-width: 4px;fill-rule: evenodd"/>
      <path d="M668.364,174.931c87.473-105.7619,189.15,61.172,24.851,59.264a21.9628,21.9628,0,0,1-20.314-15.147l-7.981-23.544A21.475,21.475,0,0,1,668.364,174.931Z" style="fill: #19d3b9;stroke: #000;stroke-width: 4px"/>
      <path d="M699.546,208.021c136.145,17.371,49.442,192.55-36.793,52.688a21.96317,21.96317,0,0,1,1.937-25.265l15.629-19.333A21.47724,21.47724,0,0,1,699.546,208.021Z" style="fill: #19d3b9;stroke: #000;stroke-width: 4px"/>
      <path d="M688.079,244.291c72.08,116.797-118.66,159.498-64.105,4.509a21.96139,21.96139,0,0,1,20.866-14.376H669.7A21.47931,21.47931,0,0,1,688.079,244.291Z" style="fill: #15b59e;stroke: #000;stroke-width: 4px"/>
      <path d="M642.502,264.831c-65.109,120.821-197.46-23.014-35.957-53.262a21.96182,21.96182,0,0,1,22.883,10.882l12.43,21.53A21.47962,21.47962,0,0,1,642.502,264.831Z" style="fill: #15b59e;stroke: #000;stroke-width: 4px"/>
      <path d="M616.945,232.273c-135.395,22.48-102.682-170.225,20.104-61.038a21.96228,21.96228,0,0,1,5.403,24.756L633.037,219A21.47938,21.47938,0,0,1,616.945,232.273Z" style="fill: #15b59e;stroke: #000;stroke-width: 4px"/>
      <path d="M620.276,184.182c-59.892-123.49081,134.19-146.67431,64.233,2a21.96388,21.96388,0,0,1-22.214,12.191l-24.732-2.515A21.48345,21.48345,0,0,1,620.276,184.182Z" style="fill: #19d3b9;stroke: #000;stroke-width: 4px"/>
      <g style="mask: url(#mask-3)">
        <path d="M668.364,174.931c87.473-105.7619,189.15,61.172,24.851,59.264a21.9628,21.9628,0,0,1-20.314-15.147l-7.981-23.544A21.475,21.475,0,0,1,668.364,174.931Z" style="fill: #19d3b9;stroke: #000;stroke-width: 4px"/>
      </g>
      <circle cx="654.12" cy="217.634" r="40.104" style="fill: #15b59e;stroke: #000;stroke-width: 4px"/>
      <path d="M428.672,600.151l-26.899-20.418,13.262-17.473,26.899,20.418a22.70077,22.70077,0,0,1-3.603,38.402l-28.066,13.98a.66988.66988,0,0,0-.324.257h0a.96365.96365,0,0,0,0,.855h0a.67511.67511,0,0,0,.324.258l23.893,11.901a22.70067,22.70067,0,0,1,0,40.64l-23.893,11.901a.67518.67518,0,0,0-.324.258h0a.95306.95306,0,0,0,0,.854v.001a.67634.67634,0,0,0,.324.257l23.893,11.901a22.70145,22.70145,0,0,1,0,40.641l-23.893,11.901a.67627.67627,0,0,0-.324.257v.001a.96158.96158,0,0,0,0,.854h0a.67511.67511,0,0,0,.324.258l23.893,11.901a22.70145,22.70145,0,0,1,0,40.641l-23.893,11.9a.67518.67518,0,0,0-.324.258h0a.96367.96367,0,0,0,0,.855h0a.67.67,0,0,0,.324.257l23.893,11.901a22.70145,22.70145,0,0,1,0,40.641L410.265,898.31a.66921.66921,0,0,0-.324.258h0a.96158.96158,0,0,0,0,.854h0a.66885.66885,0,0,0,.324.258l23.893,11.901a22.70145,22.70145,0,0,1,0,40.641l-44.979,22.403-9.781-19.635,44.98-22.404a.67516.67516,0,0,0,.324-.258.96164.96164,0,0,0,0-.854h-.001a.66324.66324,0,0,0-.323-.258l-23.894-11.901a22.70127,22.70127,0,0,1,0-40.64l23.894-11.901a.66283.66283,0,0,0,.323-.258h.001a.96164.96164,0,0,0,0-.854.67553.67553,0,0,0-.324-.258l-23.893-11.901a22.70147,22.70147,0,0,1,0-40.641l23.893-11.901a.6701.6701,0,0,0,.323-.257v-.001a.953.953,0,0,0,0-.854h0a.6694.6694,0,0,0-.323-.258L400.484,787.69a22.70127,22.70127,0,0,1,0-40.64l23.894-11.901a.66283.66283,0,0,0,.323-.258h.001a.96374.96374,0,0,0,0-.855h-.001a.65818.65818,0,0,0-.323-.257l-23.894-11.902a22.70127,22.70127,0,0,1,0-40.64l23.894-11.901a.66934.66934,0,0,0,.323-.258h0a.953.953,0,0,0,0-.854v-.001a.67016.67016,0,0,0-.323-.257l-23.893-11.901a22.70176,22.70176,0,0,1-.001-40.641l28.066-13.979a.6912.6912,0,0,0,.299-.239.89409.89409,0,0,0,.071-.766A.68325.68325,0,0,0,428.672,600.151Z" style="fill: #15b59e;stroke: #000;stroke-width: 4px;fill-rule: evenodd"/>
      <path d="M431.693,534.184c69.132-80.393,147.764,48.641,21.487,49.215-9.281.043-17.338-6.241-20.318-15.031l-4.655-13.731C425.833,547.633,426.871,539.791,431.693,534.184Z" style="fill: #19d3b9;stroke: #000;stroke-width: 4px"/>
      <path d="M457.448,562.747c104.9,15.435,37.902,150.875-30.101,44.472-4.998-7.82-3.997-17.989,1.838-25.207l9.115-11.275C442.949,564.986,450.131,561.67,457.448,562.747Z" style="fill: #19d3b9;stroke: #000;stroke-width: 4px"/>
      <path d="M447.179,593.44c53.943,91.282-93.505,124.326-53.509,4.55,2.94-8.804,11.478-14.418,20.759-14.418h14.498C436.323,583.572,443.417,587.073,447.179,593.44Z" style="fill: #15b59e;stroke: #000;stroke-width: 4px"/>
      <path d="M408.391,609.929c-52.081,92.357-154.421-18.815-30.694-44.065,9.094-1.856,18.224,2.731,22.865,10.769l7.249,12.556C411.509,595.594,412.024,603.488,408.391,609.929Z" style="fill: #15b59e;stroke: #000;stroke-width: 4px"/>
      <path d="M386.766,582.205c-104.911,15.356-79.654-133.624,16.054-51.247,7.034,6.055,8.997,16.083,5.482,24.673l-5.491,13.418C400.01,575.894,394.084,581.134,386.766,582.205Z" style="fill: #15b59e;stroke: #000;stroke-width: 4px"/>
      <path d="M390.723,541.269c-44.43-96.271,105.605-114.227,53.695.888-3.815,8.461-12.877,13.182-22.111,12.243l-14.424-1.467C400.526,552.185,393.822,547.984,390.723,541.269Z" style="fill: #19d3b9;stroke: #000;stroke-width: 4px"/>
      <g style="mask: url(#mask-4)">
        <path d="M431.693,534.184c69.132-80.393,147.764,48.641,21.487,49.215-9.281.043-17.338-6.241-20.318-15.031l-4.655-13.731C425.833,547.633,426.871,539.791,431.693,534.184Z" style="fill: #19d3b9;stroke: #000;stroke-width: 4px"/>
      </g>
      <circle cx="418.80301" cy="570.13" r="32.10719" style="fill: #15b59e;stroke: #000;stroke-width: 4px"/>
      <path d="M151.212,960.214l32.1-24.364-15.827-20.851-32.1,24.364a27.09091,27.09091,0,0,0,4.301,45.828l33.492,16.679a.82952.82952,0,0,1,.386.31h0a1.14371,1.14371,0,0,1,0,1.02h0a.8295.8295,0,0,1-.386.31l-28.513,14.2c-20.017,9.97-20.017,38.53,0,48.49994L173.178,1080.41a.77017.77017,0,0,1,.386.30994h0a1.0211,1.0211,0,0,1,.12.51,1.05245,1.05245,0,0,1-.12.51h0a.84388.84388,0,0,1-.386.30005l-28.513,14.21c-20.017,9.97-20.017,38.52,0,48.49l28.513,14.21a.84388.84388,0,0,1,.386.30005h0a1.05245,1.05245,0,0,1,.12.51,1.02073,1.02073,0,0,1-.12.51h0a.77017.77017,0,0,1-.386.30994L144.665,1174.78c-20.017,9.97-20.016,38.53,0,48.5l28.513,14.2a.829.829,0,0,1,.386.31006h0a1.14371,1.14371,0,0,1,0,1.02h0a.83.83,0,0,1-.386.30994l-28.513,14.2c-20.017,9.97009-20.017,38.53,0,48.5L173.178,1316.02a.77011.77011,0,0,1,.386.30994h0a1.02107,1.02107,0,0,1,.12.51,1.05245,1.05245,0,0,1-.12.51h0a.8439.8439,0,0,1-.386.3l-28.513,14.21c-20.017,9.97-20.017,38.52,0,48.49l53.676,26.74L210.012,1383.66l-53.676-26.74a.75832.75832,0,0,1-.386-.31005,1.02075,1.02075,0,0,1-.12-.51,1.05243,1.05243,0,0,1,.12-.51h0a.84487.84487,0,0,1,.386-.29993L184.849,1341.08c20.016-9.96,20.017-38.5199,0-48.49l-28.513-14.2a.82912.82912,0,0,1-.386-.31005h0a1.05208,1.05208,0,0,1-.12-.51,1.02018,1.02018,0,0,1,.12-.50989.75826.75826,0,0,1,.386-.31006l28.513-14.19995c20.016-9.97009,20.016-38.53,0-48.5L156.336,1199.85a.83.83,0,0,1-.386-.30994h0a1.02112,1.02112,0,0,1-.12-.51,1.05246,1.05246,0,0,1,.12-.51h0a.82911.82911,0,0,1,.386-.31006L184.849,1184.01c20.016-9.97,20.017-38.53,0-48.5l-28.513-14.19995A.7638.7638,0,0,1,155.95,1121h0a.99031.99031,0,0,1-.12-.51.97631.97631,0,0,1,.12-.5v-.01a.83625.83625,0,0,1,.386-.29993L184.849,1105.48c20.017-9.97,20.017-38.53,0-48.5l-28.513-14.2a.82911.82911,0,0,1-.386-.31006h0a1.05243,1.05243,0,0,1-.12-.51,1.02112,1.02112,0,0,1,.12-.51h0a.77017.77017,0,0,1,.386-.30994l28.513-14.20007c20.016-9.97,20.017-38.52893,0-48.499l-33.492-16.682a.81636.81636,0,0,1-.356-.285.97526.97526,0,0,1-.146-.447.99477.99477,0,0,1,.06-.467A.83017.83017,0,0,1,151.212,960.214Z" style="fill: #d12767;stroke: #000;stroke-width: 4px;fill-rule: evenodd"/>
      <path d="M41.0133,834.999v-2H123.512a82.499,82.499,0,1,1-82.4987,82.499Z" style="fill: #fe4d8f;stroke: #000;stroke-width: 4px"/>
      <path d="M180.445,972.408,43.0358,834.999h-.0226v80.499A80.499,80.499,0,0,0,180.445,972.408Z" style="fill: #d12767"/>
      <path d="M540.434,437.959l29.17-22.141L555.222,396.87l-29.17,22.141a24.61819,24.61819,0,0,0,3.908,41.645l30.435,15.159a.73508.73508,0,0,1,.351.279v.001a1.03776,1.03776,0,0,1,0,.926v.001a.73489.73489,0,0,1-.351.279l-25.91,12.906c-18.19,9.059-18.19,35.011,0,44.071l25.91,12.906a.7347.7347,0,0,1,.351.279h0a1.03988,1.03988,0,0,1,0,.927h0a.7287.7287,0,0,1-.351.279l-25.91,12.906c-18.19,9.06-18.19,35.012,0,44.072l25.91,12.905a.7279.7279,0,0,1,.351.28h0a1.03782,1.03782,0,0,1,0,.926v.001a.735.735,0,0,1-.351.279l-25.91,12.906c-18.19,9.06006-18.19,35.011,0,44.071l25.91,12.906a.7347.7347,0,0,1,.351.279h0a1.03988,1.03988,0,0,1,0,.927h0a.72277.72277,0,0,1-.351.279l-25.91,12.906c-18.19,9.06-18.19,35.012,0,44.072l25.91,12.905a.7279.7279,0,0,1,.351.28h0a1.03782,1.03782,0,0,1,0,.926v.001a.735.735,0,0,1-.351.279l-25.91,12.906c-18.19,9.06-18.19,35.011,0,44.071l48.776,24.295,10.606-21.293L545.09,798.459a.72335.72335,0,0,1-.35-.279,1.03159,1.03159,0,0,1,0-.927h0a.7235.7235,0,0,1,.35-.279l25.911-12.906c18.19-9.06,18.19-35.012,0-44.072L545.09,727.091a.72235.72235,0,0,1-.35-.28h0a1.0294,1.0294,0,0,1,0-.926.71673.71673,0,0,1,.35-.28l25.911-12.906c18.19-9.06,18.19-35.011,0-44.071L545.09,655.722a.72953.72953,0,0,1-.35-.279h0a1.03988,1.03988,0,0,1,0-.927h0a.7235.7235,0,0,1,.35-.279l25.911-12.906c18.19-9.06,18.19-35.012,0-44.072L545.09,584.354a.72235.72235,0,0,1-.35-.28h0a1.0294,1.0294,0,0,1,0-.926v-.001a.7302.7302,0,0,1,.35-.279l25.911-12.906c18.19-9.06,18.19-35.011,0-44.071L545.09,512.985a.72951.72951,0,0,1-.35-.279v-.001a1.02955,1.02955,0,0,1,0-.926h0a.7177.7177,0,0,1,.35-.279l25.911-12.906c18.19-9.06,18.19-35.012,0-44.072l-30.435-15.159a.74715.74715,0,0,1-.324-.259.97163.97163,0,0,1-.077-.83A.73221.73221,0,0,1,540.434,437.959Z" style="fill: #15b59e;stroke: #000;stroke-width: 4px;fill-rule: evenodd"/>
      <path d="M440.11,324.172v-2h75.152a75.152,75.152,0,1,1-75.152,75.152Z" style="fill: #19d3b9;stroke: #000;stroke-width: 4px"/>
      <path d="M567,449.04,442.132,324.172h-.021v73.152A73.15233,73.15233,0,0,0,567,449.04Z" style="fill: #15b59e"/>
      <path d="M826.233,499.102c-82.07,158.03-253.618-28.405-42.933-65.193a22.39815,22.39815,0,0,1,23.047,10.947l19.207,33.268A21.99349,21.99349,0,0,1,826.233,499.102Z" style="fill: #15b59e;stroke: #000;stroke-width: 4px"/>
      <path d="M795.56,460.188c-175.199,31.846-132.796-217.931,25.268-73.857a22.39982,22.39982,0,0,1,5.452,24.926L811.733,446.81A21.99163,21.99163,0,0,1,795.56,460.188Z" style="fill: #15b59e;stroke: #000;stroke-width: 4px"/>
      <path d="M622.331,790.37l40.887-31.034-20.159-26.559L602.173,763.811A34.506,34.506,0,0,0,607.65,822.183l42.66,21.249a1.01741,1.01741,0,0,1,.492.391h0a1.45495,1.45495,0,0,1,0,1.299h0a1.02231,1.02231,0,0,1-.492.392L613.992,863.603c-25.495,12.699-25.495,49.074,0,61.773l36.318,18.09a1.01753,1.01753,0,0,1,.492.391v.001a1.45289,1.45289,0,0,1,0,1.298v.001a1.017,1.017,0,0,1-.492.391l-36.318,18.09c-25.495,12.699-25.495,49.072,0,61.772l36.318,18.09a1.0065,1.0065,0,0,1,.492.39h0a1.33714,1.33714,0,0,1,.153.65,1.30515,1.30515,0,0,1-.153.6499h0a1.00578,1.00578,0,0,1-.492.39L613.992,1063.67c-25.495,12.7-25.495,49.08.001,61.77991L650.31,1143.53a1.05581,1.05581,0,0,1,.492.4h0a1.30523,1.30523,0,0,1,.153.64991,1.33709,1.33709,0,0,1-.153.65h0a1.06951,1.06951,0,0,1-.492.39l-36.318,18.09c-25.495,12.70007-25.495,49.07007,0,61.77l36.318,18.09a1.00716,1.00716,0,0,1,.492.39h0a1.45715,1.45715,0,0,1,0,1.30005h0a1.00716,1.00716,0,0,1-.492.39l-36.318,18.09c-25.495,12.69995-25.495,49.08,0,61.77L682.361,1359.57l14.866-29.85L628.858,1295.67a1.07073,1.07073,0,0,1-.49194-.39,1.33714,1.33714,0,0,1-.153-.65,1.30538,1.30538,0,0,1,.153-.65h.001a1.0078,1.0078,0,0,1,.491-.39L665.176,1275.5c25.496-12.69995,25.496-49.08,0-61.78L628.858,1195.63a1.00708,1.00708,0,0,1-.491-.39h-.001a1.30535,1.30535,0,0,1-.153-.65,1.33791,1.33791,0,0,1,.153-.65,1.07009,1.07009,0,0,1,.49194-.38989L665.176,1175.46c25.496-12.69995,25.496-49.06995,0-61.77L628.858,1095.6a1.00642,1.00642,0,0,1-.491-.39h0a1.457,1.457,0,0,1,0-1.29993h0a1.00643,1.00643,0,0,1,.491-.39l36.31806-18.09c25.496-12.70007,25.496-49.08007,0-61.78L628.858,995.565a1.012,1.012,0,0,1-.491-.391h-.001a1.45495,1.45495,0,0,1,0-1.299h.001a1.01718,1.01718,0,0,1,.491-.392L665.176,975.394c25.496-12.699,25.496-49.075,0-61.774L628.858,895.531a1.02451,1.02451,0,0,1-.491-.391l-.001-.001a1.45276,1.45276,0,0,1,0-1.298l.001-.001a1.01806,1.01806,0,0,1,.491-.39106l36.31806-18.09c25.496-12.699,25.496-49.074,0-61.773l-42.66-21.248a1.05259,1.05259,0,0,1-.453-.363,1.36008,1.36008,0,0,1-.109-1.164A1.044,1.044,0,0,1,622.331,790.37Z" style="fill: #d12767;stroke: #000;stroke-width: 4px;fill-rule: evenodd"/>
      <path d="M621.568,694.703c-107.356-133.341-234.07,74.699-28.605,70.134a22.33775,22.33775,0,0,0,20.442-15.229l11.6-34.218A21.92016,21.92016,0,0,0,621.568,694.703Z" style="fill: #fe4d8f;stroke: #000;stroke-width: 4px"/>
      <path d="M584.53,732.742c-170.082,19.427-62.028,237.742,43.973,61.672a22.338,22.338,0,0,0-1.94-25.416l-22.714-28.099A21.92164,21.92164,0,0,0,584.53,732.742Z" style="fill: #fe4d8f;stroke: #000;stroke-width: 4px"/>
      <path d="M597.327,775.068c-91.816,144.481,145.892,197.697,75.605,4.574a22.338,22.338,0,0,0-20.985-14.471H615.816A21.92048,21.92048,0,0,0,597.327,775.068Z" style="fill: #fe4d8f;stroke: #000;stroke-width: 4px"/>
      <path d="M650.301,799.973c79.216,151.756,244.15594-27.497,41.763-63.189a22.3391,22.3391,0,0,0-23.024,10.939l-18.066,31.29A21.92024,21.92024,0,0,0,650.301,799.973Z" style="fill: #fe4d8f;stroke: #000;stroke-width: 4px"/>
      <path d="M680.119,762.129C848.61,792.391,807.841,552.235,655.72,690.423a22.33891,22.33891,0,0,0-5.446,24.902l13.684,33.441A21.91868,21.91868,0,0,0,680.119,762.129Z" style="fill: #fe4d8f;stroke: #000;stroke-width: 4px"/>
      <path d="M677.411,706.265c76.726-153.03-165.146-181.921-75.68,3.099a22.33977,22.33977,0,0,0,22.342,12.273l35.946-3.656A21.92015,21.92015,0,0,0,677.411,706.265Z" style="fill: #fe4d8f;stroke: #000;stroke-width: 4px"/>
      <g style="mask: url(#mask-5)">
        <path d="M621.576,694.703c-107.356-133.341-234.07,74.699-28.605,70.135a22.3416,22.3416,0,0,0,20.442-15.229l11.6-34.219A21.92323,21.92323,0,0,0,621.576,694.703Z" style="fill: #fe4d8f;stroke: #000;stroke-width: 4px"/>
      </g>
      <circle cx="637.33002" cy="744.73999" r="48.8026" style="fill: #ffd900;stroke: #000;stroke-width: 4px"/>
      <path d="M269.22,806.031l-33.457-25.395,16.496-21.733L285.716,784.298a28.23569,28.23569,0,0,1-4.483,47.765l-34.908,17.388a.82713.82713,0,0,0-.402.32h0a1.184,1.184,0,0,0,0,1.063h0a.83185.83185,0,0,0,.402.32105L276.044,865.957c20.863,10.392,20.863,40.157,0,50.549l-29.719,14.803a.82641.82641,0,0,0-.402.32h0a1.184,1.184,0,0,0,0,1.063h0a.8272.8272,0,0,0,.402.32l29.719,14.803c20.863,10.392,20.863,40.157,0,50.549l-29.719,14.806a.82719.82719,0,0,0-.402.32h0a1.03739,1.03739,0,0,0-.126.53,1.06767,1.06767,0,0,0,.126.53h0a.82719.82719,0,0,0,.402.32l29.719,14.8c20.863,10.39,20.863,40.15992,0,50.54993l-29.719,14.8a.83374.83374,0,0,0-.402.32h0a1.11513,1.11513,0,0,0-.125.54,1.06959,1.06959,0,0,0,.125.53h0a.83374.83374,0,0,0,.402.32l29.719,14.8c20.863,10.39,20.863,40.15991,0,50.54993l-29.719,14.8a.82761.82761,0,0,0-.402.31995h0a1.06831,1.06831,0,0,0-.126.53,1.11343,1.11343,0,0,0,.126.54h0a.82761.82761,0,0,0,.402.32l29.719,14.8c20.863,10.39,20.863,40.16,0,50.54993l-55.946,27.86011-12.164-24.42,55.945-27.87a.83239.83239,0,0,0,.403-.32007,1.04893,1.04893,0,0,0,.125-.52991,1.0808,1.0808,0,0,0-.125-.53h-.001a.82631.82631,0,0,0-.402-.31994L234.16,1203.01c-20.863-10.39-20.863-40.16,0-50.55005L263.879,1137.66a.82689.82689,0,0,0,.402-.32006h.001a1.09421,1.09421,0,0,0,.125-.53992,1.0808,1.0808,0,0,0-.125-.53.83245.83245,0,0,0-.403-.32007L234.161,1121.15c-20.864-10.39-20.863-40.16,0-50.55l29.718-14.79993a.82688.82688,0,0,0,.402-.32007h.001a1.0808,1.0808,0,0,0,.125-.53,1.049,1.049,0,0,0-.125-.52991h-.001a.82689.82689,0,0,0-.402-.32006L234.16,1039.29c-20.863-10.39-20.863-40.15405,0-50.546l29.719-14.803a.82653.82653,0,0,0,.402-.32h.001a1.19245,1.19245,0,0,0,0-1.063h-.001a.82732.82732,0,0,0-.402-.32L234.16,957.435c-20.863-10.392-20.863-40.157,0-50.549l29.719-14.802a.832.832,0,0,0,.402-.321h.001a1.19245,1.19245,0,0,0,0-1.063h-.001a.8273.8273,0,0,0-.402-.32L234.16,875.577c-20.863-10.39106-20.863-40.15705,0-50.549l34.909-17.387a.857.857,0,0,0,.371-.297,1.02965,1.02965,0,0,0,.152-.466,1.01815,1.01815,0,0,0-.063-.487A.85332.85332,0,0,0,269.22,806.031Z" style="fill: #15b59e;stroke: #000;stroke-width: 4px;fill-rule: evenodd"/>
      <path d="M271.166,726.131c87.087-105.227,188.279,60.909,24.778,59.052a21.95438,21.95438,0,0,1-20.311-15.145l-7.911-23.336A21.47038,21.47038,0,0,1,271.166,726.131Z" style="fill: #19d3b9;stroke: #000;stroke-width: 4px"/>
      <path d="M302.229,759.125c135.486,17.33,49.197,191.672-36.654,52.512a21.954,21.954,0,0,1,1.938-25.261l15.491-19.163A21.46711,21.46711,0,0,1,302.229,759.125Z" style="fill: #19d3b9;stroke: #000;stroke-width: 4px"/>
      <path d="M290.788,795.277c71.697,116.259-118.131,158.757-63.881,4.507a21.95517,21.95517,0,0,1,20.864-14.373h24.641A21.46853,21.46853,0,0,1,290.788,795.277Z" style="fill: #15b59e;stroke: #000;stroke-width: 4px"/>
      <path d="M245.356,815.731c-64.835,120.222-196.5536-22.926-35.844-53.068a21.9532,21.9532,0,0,1,22.879,10.881l12.321,21.34A21.47159,21.47159,0,0,1,245.356,815.731Z" style="fill: #15b59e;stroke: #000;stroke-width: 4px"/>
      <path d="M219.879,783.276c-134.7526,22.33-102.196-169.454,20.02-60.829a21.95289,21.95289,0,0,1,5.402,24.752l-9.332,22.806A21.468,21.468,0,0,1,219.879,783.276Z" style="fill: #15b59e;stroke: #000;stroke-width: 4px"/>
      <path d="M223.234,735.337c-59.567-122.917,133.587-145.99,64.008,1.979a21.953,21.953,0,0,1-22.21,12.189l-24.515-2.493A21.46874,21.46874,0,0,1,223.234,735.337Z" style="fill: #19d3b9;stroke: #000;stroke-width: 4px"/>
      <g style="mask: url(#mask-6)">
        <path d="M271.166,726.131c87.087-105.227,188.279,60.909,24.778,59.052a21.95438,21.95438,0,0,1-20.311-15.145l-7.911-23.336A21.47038,21.47038,0,0,1,271.166,726.131Z" style="fill: #19d3b9;stroke: #000;stroke-width: 4px"/>
      </g>
      <circle cx="256.94699" cy="768.69098" r="39.935" style="fill: #15b59e;stroke: #000;stroke-width: 4px"/>
      <path d="M456.578,1064.04l-39.396-29.9,19.424-25.59,39.396,29.9a33.25406,33.25406,0,0,1-5.278,56.25L429.62,1115.17a.98964.98964,0,0,0-.474.38h0a1.23214,1.23214,0,0,0-.148.62,1.27753,1.27753,0,0,0,.148.63h0a.94276.94276,0,0,0,.474.37L464.613,1134.6c24.566,12.24,24.566,47.29,0,59.53l-34.994,17.43006a.94186.94186,0,0,0-.473.37h0a1.27715,1.27715,0,0,0-.148.63,1.23288,1.23288,0,0,0,.148.62h0a.9917.9917,0,0,0,.473.38L464.613,1230.99c24.566,12.24,24.566,47.29,0,59.52l-34.994,17.42993a.9917.9917,0,0,0-.473.38h0a1.24676,1.24676,0,0,0-.148.63,1.23222,1.23222,0,0,0,.148.62h0a.98965.98965,0,0,0,.474.38L464.613,1327.38c24.566,12.23,24.566,47.28,0,59.52L429.62,1404.33a.99741.99741,0,0,0-.474.38h0a1.23427,1.23427,0,0,0-.147.62,1.27887,1.27887,0,0,0,.147.63h0a.996.996,0,0,0,.474.38l34.993,17.43c24.566,12.23,24.566,47.28,0,59.52L429.619,1500.72a.94316.94316,0,0,0-.473.37h0a1.27745,1.27745,0,0,0-.148.63,1.23222,1.23222,0,0,0,.148.62h0a.93255.93255,0,0,0,.474.38l34.993,17.43c24.566,12.24,24.566,47.28992,0,59.52L398.738,1612.48l-14.324-28.75L450.29,1550.92a.979.979,0,0,0,.473-.38,1.27764,1.27764,0,0,0,.148-.63,1.23228,1.23228,0,0,0-.148-.62h0a.99022.99022,0,0,0-.473-.38l-34.994-17.43c-24.566-12.24-24.566-47.29,0-59.52L450.29,1454.53a.99164.99164,0,0,0,.473-.38h0a1.23262,1.23262,0,0,0,.148-.62,1.24621,1.24621,0,0,0-.148-.63.97767.97767,0,0,0-.473-.38l-34.994-17.43c-24.566-12.23-24.566-47.27991,0-59.52L450.29,1358.14a.9342.9342,0,0,0,.473-.38h0a1.23232,1.23232,0,0,0,.148-.62,1.27722,1.27722,0,0,0-.148-.63h0a.94253.94253,0,0,0-.473-.37L415.296,1338.71c-24.566-12.24-24.566-47.28992,0-59.52L450.29,1261.76a.99164.99164,0,0,0,.473-.38h0a1.27718,1.27718,0,0,0,.148-.63,1.23232,1.23232,0,0,0-.148-.62h0a.991.991,0,0,0-.473-.38l-34.994-17.43c-24.566-12.24-24.566-47.28992,0-59.5199L450.29,1165.37a.991.991,0,0,0,.473-.38h0a1.23231,1.23231,0,0,0,.148-.62,1.24621,1.24621,0,0,0-.148-.63h0a.99165.99165,0,0,0-.473-.38l-34.994-17.42994c-24.566-12.2301-24.566-47.28,0-59.52l41.104-20.47009a1.02774,1.02774,0,0,0,.437-.35,1.2315,1.2315,0,0,0,.179-.54993,1.201,1.201,0,0,0-.074-.57007A.95912.95912,0,0,0,456.578,1064.04Z" style="fill: #15b59e;stroke: #000;stroke-width: 4px;fill-rule: evenodd"/>
      <path d="M457.574,971.535c103.29-127.693,224.878,71.935,27.841,67.915a22.2683,22.2683,0,0,1-20.419-15.21l-10.86-32.038A21.84247,21.84247,0,0,1,457.574,971.535Z" style="fill: #19d3b9;stroke: #000;stroke-width: 4px"/>
      <path d="M493.424,1008.56c163.134,19.02,59.451,228.50006-42.507,59.84a22.27258,22.27258,0,0,1,1.939-25.39l21.265-26.3A21.86358,21.86358,0,0,1,493.424,1008.56Z" style="fill: #19d3b9;stroke: #000;stroke-width: 4px"/>
      <path d="M480.894,1049.65c87.773,138.82-140.32,189.88-73.259,4.57a22.27484,22.27484,0,0,1,20.965-14.46h33.825A21.84274,21.84274,0,0,1,480.894,1049.65Z" style="fill: #15b59e;stroke: #000;stroke-width: 4px"/>
      <path d="M429.432,1073.67C353.099,1219.09,194.83,1047.09,388.851,1012.5a22.30055,22.30055,0,0,1,23,10.93l16.912,29.3A21.84076,21.84076,0,0,1,429.432,1073.67Z" style="fill: #15b59e;stroke: #000;stroke-width: 4px"/>
      <path d="M400.48,1036.91C238.763,1065.57,277.883,835.127,424.001,967.375a22.27071,22.27071,0,0,1,5.438,24.876l-12.81,31.309A21.87286,21.87286,0,0,1,400.48,1036.91Z" style="fill: #15b59e;stroke: #000;stroke-width: 4px"/>
      <path d="M403.32,982.626C330.044,835.641,562.133,807.918,476.665,985.5a22.2723,22.2723,0,0,1-22.319,12.258l-33.652-3.422A21.84425,21.84425,0,0,1,403.32,982.626Z" style="fill: #19d3b9;stroke: #000;stroke-width: 4px"/>
      <g style="mask: url(#mask-7)">
        <path d="M457.59,971.536c103.289-127.692,224.878,71.934,27.84,67.91394a22.27035,22.27035,0,0,1-20.419-15.21l-10.859-32.037A21.84014,21.84014,0,0,1,457.59,971.536Z" style="fill: #19d3b9;stroke: #000;stroke-width: 4px"/>
      </g>
      <circle cx="442.125" cy="1020.08002" r="47.02312" style="fill: #15b59e;stroke: #000;stroke-width: 4px"/>
      <path d="M624.741,1161.56006C542.011,1062.36,446.293,1219.5,600.793,1218.22a21.85007,21.85007,0,0,0,20.275-15.12l7.119-21A21.34837,21.34837,0,0,0,624.741,1161.56006Z" style="fill: #fe4d8f;stroke: #000;stroke-width: 4px"/>
      <path d="M594.964,1193.46c-128.065,16.88-46.445,181.79,35.076,50.54a21.85108,21.85108,0,0,0-1.938-25.22l-13.939-17.25A21.36393,21.36393,0,0,0,594.964,1193.46Z" style="fill: #fe4d8f;stroke: #000;stroke-width: 4px"/>
      <path d="M606.115,1228.29c-67.39,110.18994,112.169,150.39,61.348,4.48a21.84909,21.84909,0,0,0-20.829-14.34H624.46A21.34665,21.34665,0,0,0,606.115,1228.29Z" style="fill: #fe4d8f;stroke: #000;stroke-width: 4px"/>
      <path d="M649.923,1247.78c61.74005,113.46,186.332-21.94006,34.562-50.89a21.86233,21.86233,0,0,0-22.84,10.87L650.558,1226.96A21.35548,21.35548,0,0,0,649.923,1247.78Z" style="fill: #fe4d8f;stroke: #000;stroke-width: 4px"/>
      <path d="M674.463,1216.48c127.512,20.64,96.717-160.77-19.078-58.48a21.84817,21.84817,0,0,0-5.39,24.71l8.397,20.53A21.34521,21.34521,0,0,0,674.463,1216.48Z" style="fill: #fe4d8f;stroke: #000;stroke-width: 4px"/>
      <path d="M670.971,1170.25c55.894-116.44995-126.81-138.27-61.488,1.74a21.853,21.853,0,0,0,22.175,12.17l22.059-2.24A21.35112,21.35112,0,0,0,670.971,1170.25Z" style="fill: #fe4d8f;stroke: #000;stroke-width: 4px"/>
      <g style="mask: url(#mask-8)">
        <path d="M624.733,1161.56006C542.003,1062.36,446.285,1219.5,600.786,1218.22a21.852,21.852,0,0,0,20.275-15.12l7.11805-21A21.3431,21.3431,0,0,0,624.733,1161.56006Z" style="fill: #fe4d8f;stroke: #000;stroke-width: 4px"/>
      </g>
      <circle cx="638.62598" cy="1202.5" r="38.0303" style="fill: #ffd900;stroke: #000;stroke-width: 4px"/>
      <path d="M173.091,1111.31006c108.698-135.20905,237.105,75.61,28.856,70.86a22.35442,22.35442,0,0,1-20.448-15.2301L169.655,1132A21.93535,21.93535,0,0,1,173.091,1111.31006Z" style="fill: #19d3b9;stroke: #000;stroke-width: 4px"/>
      <path d="M210.53,1149.68005C382.906,1169.24,273.409,1390.48,166.073,1211.96a22.36789,22.36789,0,0,1,1.94-25.42993L191.206,1157.84A21.95666,21.95666,0,0,1,210.53,1149.68005Z" style="fill: #19d3b9;stroke: #000;stroke-width: 4px"/>
      <path d="M197.636,1192.41c93.152,146.36-147.7316,200.27991-76.379,4.58a22.3541,22.3541,0,0,1,20.992-14.47h36.892A21.95843,21.95843,0,0,1,197.636,1192.41Z" style="fill: #15b59e;stroke: #000;stroke-width: 4px"/>
      <path d="M144.164,1217.61c-80.1682,153.85-247.312-27.79993-42.154-63.85A22.34911,22.34911,0,0,1,125.042,1164.7L143.489,1196.65A21.936,21.936,0,0,1,144.164,1217.61Z" style="fill: #15b59e;stroke: #000;stroke-width: 4px"/>
      <path d="M114.058,1179.41C-56.6702,1210.2-15.3561,966.837,138.747,1106.99a22.35809,22.35809,0,0,1,5.447,24.91l-13.971,34.14A21.9308,21.9308,0,0,1,114.058,1179.41Z" style="fill: #15b59e;stroke: #000;stroke-width: 4px"/>
      <path d="M116.729,1123.02C38.8627,967.998,283.966,938.721,193.179,1126.2a22.38072,22.38072,0,0,1-22.349,12.28l-36.703-3.74A21.94688,21.94688,0,0,1,116.729,1123.02Z" style="fill: #19d3b9;stroke: #000;stroke-width: 4px"/>
      <g style="mask: url(#mask-9)">
        <path d="M173.099,1111.31006c108.698-135.20905,237.105,75.61,28.856,70.86a22.35335,22.35335,0,0,1-20.448-15.2301L169.662,1132A21.9383,21.9383,0,0,1,173.099,1111.31006Z" style="fill: #19d3b9;stroke: #000;stroke-width: 4px"/>
      </g>
      <circle cx="157.226" cy="1161.83997" r="49.39023" style="fill: #15b59e;stroke: #000;stroke-width: 4px"/>
      <path d="M725.135,978.437v-2H862.091A136.95649,136.95649,0,1,1,725.135,1113.39Z" style="fill: #19d3b9;stroke: #000;stroke-width: 4px"/>
      <path d="M957.531,1208.80005,727.166,978.437h-.038V1113.39a134.95352,134.95352,0,0,0,230.403,95.41Z" style="fill: #15b59e"/>
    </g>
  </g>
</svg>
